<?xml version="1.0" encoding="utf-8"?>
<!-- Generator: Adobe Illustrator 21.1.0, SVG Export Plug-In . SVG Version: 6.00 Build 0)  -->
<svg version="1.1" id="plus" xmlns="http://www.w3.org/2000/svg" xmlns:xlink="http://www.w3.org/1999/xlink" x="0px" y="0px"
	 viewBox="0 0 216 216" style="enable-background:new 0 0 216 216;" xml:space="preserve">
<style type="text/css">
	.st0{fill:none;}
	.st1{fill:#FFFFFF;}
</style>
<g>
	<path class="st0" d="M108,25.5c-45.5,0-82.5,37-82.5,82.5s37,82.5,82.5,82.5s82.5-37,82.5-82.5S153.5,25.5,108,25.5z M150.9,111.3
		h-39.6v39.6c0,1.8-1.5,3.3-3.3,3.3s-3.3-1.5-3.3-3.3v-39.6H65.1c-1.8,0-3.3-1.5-3.3-3.3s1.5-3.3,3.3-3.3h39.6V65.1
		c0-1.8,1.5-3.3,3.3-3.3s3.3,1.5,3.3,3.3v39.6h39.6c1.8,0,3.3,1.5,3.3,3.3S152.7,111.3,150.9,111.3z"/>
	<path class="st1" d="M150.9,104.7h-39.6V65.1c0-1.8-1.5-3.3-3.3-3.3s-3.3,1.5-3.3,3.3v39.6H65.1c-1.8,0-3.3,1.5-3.3,3.3
		s1.5,3.3,3.3,3.3h39.6v39.6c0,1.8,1.5,3.3,3.3,3.3s3.3-1.5,3.3-3.3v-39.6h39.6c1.8,0,3.3-1.5,3.3-3.3S152.7,104.7,150.9,104.7z"/>
</g>
</svg>
