<svg xmlns="http://www.w3.org/2000/svg" xmlns:xlink="http://www.w3.org/1999/xlink" width="28" height="28" viewBox="0 0 28 28">
    <defs>
        <path id="a" d="M18 11.998a1 1 0 1 1 0-2h1.436c.964 0 1.477.1 2.012.385.5.268.9.666 1.167 1.167.286.535.385 1.048.385 2.012v8.872c0 .964-.1 1.477-.385 2.012-.268.5-.666.9-1.167 1.167-.535.286-1.048.385-2.012.385H8.564c-.964 0-1.477-.1-2.012-.385a2.817 2.817 0 0 1-1.167-1.167C5.1 23.911 5 23.398 5 22.434v-8.872c0-.964.1-1.477.385-2.012.268-.5.666-.9 1.167-1.167.535-.286 1.048-.385 2.012-.385H10a1 1 0 0 1 0 2H8.564c-.662 0-.864.039-1.07.149a.818.818 0 0 0-.345.346c-.11.205-.149.407-.149 1.069v8.872c0 .662.039.864.149 1.07a.818.818 0 0 0 .346.345c.205.11.407.149 1.069.149h10.872c.662 0 .864-.039 1.07-.149a.818.818 0 0 0 .345-.346c.11-.205.149-.407.149-1.069v-8.872c0-.662-.039-.864-.149-1.07a.818.818 0 0 0-.346-.345c-.205-.11-.407-.149-1.069-.149H18zM9.293 6.293l3.81-3.811.191-.19a.982.982 0 0 1 .988-.252 1.009 1.009 0 0 1 .475.302l3.95 3.95a1 1 0 1 1-1.414 1.415L15 5.414V18a1 1 0 0 1-2 0V5.414l-2.293 2.293a1 1 0 0 1-1.414-1.414z"/>
    </defs>
    <g fill="none" fill-rule="evenodd">
        <mask id="b" fill="#fff">
            <use xlink:href="#a"/>
        </mask>
        <use fill="#777" fill-rule="nonzero" xlink:href="#a"/>
        <g fill="#777" mask="url(#b)">
            <path d="M0 0h28v28H0z"/>
        </g>
    </g>
</svg>
