<?xml version="1.0" encoding="utf-8"?>
<!-- Generator: Adobe Illustrator 22.1.0, SVG Export Plug-In . SVG Version: 6.00 Build 0)  -->
<svg version="1.1" id="Layer_1" xmlns="http://www.w3.org/2000/svg" xmlns:xlink="http://www.w3.org/1999/xlink" x="0px" y="0px"
	 viewBox="0 0 36 36" style="enable-background:new 0 0 36 36;" xml:space="preserve">
<style type="text/css">
	.st0{fill:#656565;}
</style>
<path class="st0" d="M22.8,11.4c0.3-0.3,0.3-0.8,0-1.1c0,0,0,0,0,0c-0.3-0.3-0.8-0.3-1.2,0l-7.4,7.2c-0.3,0.3-0.3,0.8,0,1.1
	c0,0,0,0,0,0l7.4,7.2c0.3,0.3,0.8,0.3,1.2,0c0.3-0.3,0.3-0.8,0-1.1c0,0,0,0,0,0L16,18C16,18,22.8,11.4,22.8,11.4z"/>
</svg>
